<svg width="29" height="30" viewBox="0 0 29 30" fill="none" xmlns="http://www.w3.org/2000/svg">
<path fill-rule="evenodd" clip-rule="evenodd" d="M19.8575 9.78298C19.4041 9.38554 18.7521 9.39457 18.378 9.5101C18.623 9.20916 19.1939 8.96243 19.3621 8.93248C19.4901 8.98049 19.8575 9.35797 19.8575 9.78298ZM21.3051 8.13711C21.0068 6.54211 17.3002 7.59895 15.4335 6.92149C15.3978 7.38644 16.0082 8.13141 16.5921 8.40715C15.594 9.27334 14.6979 11.0186 14.5171 13.1508C14.3368 11.0186 13.4407 9.27334 12.4427 8.40715C13.0265 8.13141 13.6375 7.38644 13.6012 6.92149C11.7346 7.59895 8.02789 6.54211 7.72919 8.13711C7.66635 8.47466 7.82875 8.98905 8.0042 9.1369C8.03562 9.02993 8.19947 8.68003 8.71615 8.60159C11.3276 8.207 13.5079 12.2318 11.5398 13.8591C11.5098 13.8839 11.5267 13.9295 11.5673 13.9295H17.4679C17.508 13.9295 17.5249 13.8839 17.4954 13.8591C15.5268 12.2318 17.7071 8.207 20.3186 8.60159C20.8357 8.68003 20.9991 9.02993 21.0305 9.1369C21.206 8.98905 21.3684 8.47466 21.3051 8.13711ZM21.9402 4.47646C21.8933 4.32575 23.4245 4.32195 23.4245 5.28038C23.4245 5.92266 22.5086 6.22692 22.5086 6.89344C22.5086 7.20389 22.8425 7.43161 22.945 7.43161C22.7091 6.36146 23.6845 6.92149 23.9479 7.12164C23.4245 5.68257 24.6028 5.69161 24.4868 5.03174C24.4061 4.57059 23.3819 4.70989 23.0112 4.47646C22.3534 4.06238 21.5752 2.45121 21.0624 4.06238C22.0185 4.94997 21.4621 6.25639 20.2485 6.25639C20.2485 6.25639 20.2417 6.44798 20.2528 6.4632C21.7004 6.39236 22.205 5.32839 21.9402 4.47646ZM5.05152 7.12164C5.31494 6.92149 6.2903 6.36146 6.05492 7.43161C6.1569 7.43161 6.49089 7.20389 6.49089 6.89344C6.49089 6.22692 5.57497 5.92266 5.57497 5.28038C5.57497 4.32195 7.10617 4.32575 7.05929 4.47646C6.7949 5.32839 7.2995 6.39236 8.74709 6.4632C8.75772 6.44798 8.75095 6.25639 8.75095 6.25639C7.53779 6.25639 6.98147 4.94997 7.93702 4.06238C7.4242 2.45121 6.64604 4.06238 5.98822 4.47646C5.6175 4.70989 4.59332 4.57059 4.5126 5.03174C4.39709 5.69161 5.57497 5.68257 5.05152 7.12164ZM9.16179 9.78298C9.61564 9.38554 10.2677 9.39457 10.6413 9.5101C10.3972 9.20916 9.8254 8.96243 9.65769 8.93248C9.5296 8.98049 9.16179 9.35797 9.16179 9.78298ZM15.2059 0.860967L14.4997 0L13.7936 0.860967L14.4997 1.7671L15.2059 0.860967ZM19.2369 3.46431L18.7347 2.85246L18.233 3.46431L18.7347 4.06238L19.2369 3.46431ZM23.3099 21.1505L22.6734 20.4769L22.0368 21.1505L22.6734 21.7414L23.3099 21.1505ZM10.7669 3.46431L10.2648 2.85246L9.76305 3.46431L10.2648 4.06238L10.7669 3.46431ZM9.32854 6.4632H11.2015C12.7762 6.4632 13.4847 5.49669 13.6988 4.65854H15.3011C15.5152 5.49669 16.2233 6.4632 17.7985 6.4632H19.6714C19.6714 6.4632 19.9991 6.01869 20.0813 5.79857C20.3771 5.00654 19.9991 4.63715 19.4476 4.63715L18.7347 5.28323L18.0218 4.63715C17.4703 4.63715 17.0923 5.00654 17.3881 5.79857C17.4258 5.89984 17.5162 6.04864 17.6018 6.17938C16.9372 6.0881 16.0889 5.63313 15.9028 4.65854C15.9028 4.65854 16.3939 3.87839 16.5172 3.56272C16.9599 2.42744 16.3944 1.96344 15.5674 1.96344L14.4997 3.21852L13.432 1.96344C12.6051 1.96344 12.0396 2.42744 12.4828 3.56272C12.6055 3.87839 13.0971 4.65854 13.0971 4.65854C12.9105 5.63313 12.0623 6.0881 11.3977 6.17938C11.4837 6.04864 11.5736 5.89984 11.6113 5.79857C11.9066 5.00654 11.5296 4.63715 10.9777 4.63715L10.2648 5.28323L9.55184 4.63715C8.99987 4.63715 8.62287 5.00654 8.91819 5.79857C9.00035 6.01869 9.32854 6.4632 9.32854 6.4632ZM28.6923 12.2689C28.3308 12.4519 26.2099 13.4455 23.4931 13.078C23.5216 12.9483 23.5448 12.8175 23.5646 12.6868C25.3728 12.4705 26.8426 12.1638 27.7793 11.6428C28.847 11.0485 29.3139 9.6299 28.775 8.57449C28.761 8.54787 28.7223 8.54311 28.703 8.56546C28.4076 8.90538 26.5507 10.9254 23.6251 11.5534C23.6173 11.4008 23.6038 11.2501 23.5835 11.1003C25.0045 10.2945 26.3917 9.36605 27.0524 8.51697C28.0509 7.23336 27.9591 5.59605 27.0089 4.76123C26.9886 4.74316 26.9557 4.74839 26.9417 4.77074C26.6411 5.26659 23.8271 9.81484 20.7376 11.7783C20.7067 11.7982 20.6651 11.8239 20.6236 11.8491C20.5351 11.9028 20.5254 12.0179 20.6008 12.0863C20.9571 12.4091 21.1784 12.8584 21.1784 13.3571C21.1784 14.2243 20.51 14.9455 19.6264 15.1019C19.1774 15.1889 18.5293 15.1637 17.9067 14.9578C17.8787 14.9488 17.8497 14.9673 17.8497 14.9954V17.7418C17.8497 17.786 17.9169 17.797 17.9328 17.7547C18.3113 16.752 19.4442 16.539 19.9396 16.539C20.118 17.6106 20.4365 18.4982 20.8502 18.976C21.524 19.7523 22.6241 19.7414 23.1011 19.2047C23.1176 19.1861 23.1127 19.1571 23.0905 19.1448C22.8102 18.9836 21.2065 17.999 20.8855 16.3855C21.0122 16.3417 21.1359 16.2923 21.2543 16.2338C21.772 17.0905 22.5255 17.8535 23.1321 18.145C24.1509 18.6337 25.0838 18.396 25.4975 17.6805C25.5125 17.6553 25.4941 17.6239 25.4637 17.6211C24.8334 17.5707 22.8991 17.0163 22.0755 15.6657C22.1697 15.5792 22.2621 15.4889 22.3481 15.3928C23.2099 16.0489 24.4284 16.6289 25.3008 16.7473C26.3216 16.8861 27.4782 16.5604 27.5062 15.3733C27.5067 15.3496 27.4854 15.3301 27.4603 15.3315C27.0973 15.3534 24.6947 15.458 22.9827 14.4753C23.0422 14.3626 23.0973 14.2476 23.149 14.1301C23.149 14.1301 25.7358 14.7415 26.9615 14.539C28.1795 14.3379 28.8929 13.4299 28.7552 12.3003C28.7513 12.2722 28.7184 12.2556 28.6923 12.2689ZM5.85047 14.1301C5.90219 14.2476 5.95777 14.3626 6.01722 14.4753C4.30574 15.4575 1.90405 15.3538 1.53962 15.3315C1.514 15.3301 1.49274 15.3505 1.49322 15.3738C1.52174 16.5604 2.67787 16.8861 3.69867 16.7473C4.5706 16.6289 5.78957 16.0489 6.65135 15.3928C6.73787 15.4889 6.8297 15.5792 6.92395 15.6657C6.09987 17.0163 4.16605 17.5707 3.53579 17.6211C3.50534 17.6239 3.48745 17.6553 3.50195 17.6805C3.91569 18.396 4.84852 18.6337 5.86787 18.145C6.47397 17.8535 7.22749 17.0905 7.74514 16.2338C7.86404 16.2923 7.98777 16.3417 8.11392 16.3855C7.79299 17.999 6.18929 18.9836 5.90895 19.1448C5.8872 19.1571 5.88189 19.1861 5.89832 19.2047C6.37537 19.7414 7.47592 19.7523 8.14969 18.976C8.56342 18.4982 8.88145 17.6106 9.0598 16.539C9.5557 16.539 10.6882 16.752 11.0666 17.7547C11.083 17.797 11.1502 17.786 11.1502 17.7418V14.9954C11.1502 14.9673 11.1207 14.9488 11.0927 14.9578C10.4702 15.1637 9.82202 15.1889 9.37349 15.1019C8.48947 14.9455 7.82102 14.2243 7.82102 13.3571C7.82102 12.8584 8.04287 12.4087 8.3986 12.0859C8.47449 12.0179 8.46434 11.9028 8.37637 11.8491C8.33432 11.8239 8.29275 11.7982 8.26134 11.7783C5.1738 9.81579 2.36129 5.27087 2.05824 4.77169C2.04422 4.74839 2.01039 4.74364 1.9896 4.7617C1.04082 5.597 0.948503 7.23384 1.94707 8.51697C2.60779 9.36605 3.99495 10.2945 5.41547 11.1003C5.39565 11.2501 5.38164 11.4008 5.37439 11.5534C2.45119 10.9259 0.59567 8.90918 0.297453 8.56688C0.277636 8.54359 0.238003 8.54834 0.22447 8.57497C-0.31348 9.63085 0.15342 11.0485 1.22014 11.6428C2.15684 12.1638 3.62665 12.4705 5.4348 12.6868C5.45462 12.8175 5.47782 12.9483 5.50634 13.078C2.79242 13.4451 0.67252 12.4538 0.308086 12.2694C0.28102 12.2556 0.248153 12.2727 0.24477 12.3012C0.107503 13.4308 0.82042 14.3379 2.03842 14.539C3.26367 14.7415 5.85047 14.1301 5.85047 14.1301ZM22.6734 22.6091L21.7309 21.8674C21.3548 22.0913 21.0784 22.447 20.9711 22.8639C20.4041 22.9433 18.8584 22.6 19.0087 22.3723C20.7028 19.9896 19.407 18.5709 17.8497 18.6499V20.2501C17.8497 20.764 17.4012 21.1805 16.8487 21.1805H15.7733C15.0019 21.1805 14.4997 21.9559 14.4997 21.9559C14.4997 21.9559 13.9975 21.1805 13.2261 21.1805H12.1507C11.5978 21.1805 11.1502 20.764 11.1502 20.2501V18.6499C9.59292 18.5709 8.29614 19.9896 9.9907 22.3723C10.1396 22.5977 8.55085 22.9585 7.80555 22.8672C7.60932 22.6637 7.32609 22.5354 7.00902 22.5354C6.86934 22.5354 6.73642 22.561 6.61414 22.6062C6.61414 22.6062 3.68562 19.8336 3.63197 19.8065L3.65614 19.7504C3.82289 19.4386 3.56769 19.0986 3.40625 19.1224C3.59379 18.8975 3.60249 17.913 2.56235 17.6852C2.5928 17.883 2.60827 18.2866 2.60827 18.2866C2.60827 18.2866 1.80545 17.8526 1.40235 18.2272C1.04807 18.6465 1.53962 19.4072 1.53962 19.4072C1.53962 19.4072 1.12879 19.4172 0.92627 19.4C1.224 20.407 2.22257 20.3357 2.43862 20.1369C2.4246 20.2971 2.78565 20.5253 3.0916 20.3423L3.22597 20.2772C3.24965 20.309 6.1018 23.0037 6.1018 23.0037C5.97082 23.1981 5.90847 23.4368 5.95149 23.6911C6.01915 24.0885 6.35024 24.418 6.77315 24.5036C7.07185 24.5635 7.35267 24.5055 7.5779 24.3738L8.33287 25.0745C8.40005 25.1354 8.49092 25.1734 8.59242 25.1663C8.77705 25.1539 8.91529 25.0042 8.90127 24.8326C8.89547 24.7551 8.85584 24.6885 8.80122 24.6381C8.78914 24.6248 8.03224 23.9221 8.03224 23.9221C8.6567 23.4843 9.82009 23.1758 10.7858 23.1758C10.9554 23.1758 11.0352 23.0322 10.9767 22.8915C10.5393 21.8394 11.4799 21.0773 12.4528 21.6977C12.8772 21.9682 13.3083 22.5011 13.6331 23.3902C12.0367 23.7767 10.0323 24.8416 9.62675 26.004C9.47064 26.4528 9.98635 27.0646 10.6128 27.1877C10.6364 27.193 10.6592 27.1773 10.6635 27.1549C10.9907 25.4197 12.8569 24.1266 13.8279 23.9069C13.8767 24.0377 13.8608 23.9954 13.9096 24.1256C12.852 24.6258 11.8264 25.6807 11.5335 26.9348C11.3991 27.5091 12.0396 28.0268 12.5683 28.1685C12.5949 28.1756 12.621 28.1571 12.6225 28.1314C12.723 26.5455 13.4233 25.1986 14.0507 24.5858C14.0676 24.7037 14.0807 24.8245 14.0894 24.9467C14.0894 24.9467 13.447 26.7366 13.447 28.0425C13.447 28.6501 14.3499 29.0742 14.4833 29.1336C14.65 29.0742 15.5524 28.6501 15.5524 28.0425C15.5524 26.7366 14.9101 24.9467 14.9101 24.9467C14.9193 24.8245 14.9318 24.7037 14.9492 24.5858C15.5761 25.1986 16.2769 26.545 16.377 28.131C16.3784 28.1566 16.405 28.1756 16.4311 28.1685C16.9604 28.0268 17.6003 27.5091 17.4664 26.9348C17.173 25.6807 16.1479 24.6258 15.0904 24.1256C15.1387 23.9954 15.1227 24.0377 15.1716 23.9069C16.1431 24.1266 18.0087 25.4197 18.3359 27.1549C18.3403 27.1773 18.3635 27.193 18.3867 27.1877C19.0126 27.0646 19.5293 26.4528 19.3722 26.004C18.9677 24.8416 16.9628 23.7767 15.3663 23.3902C15.6916 22.5011 16.1228 21.9682 16.5471 21.6977C17.5196 21.0773 18.4602 21.8394 18.0227 22.8915C17.9643 23.0322 18.0435 23.1758 18.2137 23.1758C19.306 23.1758 20.6516 23.5703 21.1842 24.0995C21.5245 24.6101 22.1533 24.9367 22.8628 24.8668C23.669 24.7879 24.3264 24.1822 24.4172 23.4334C24.4965 22.7774 24.1572 22.1883 23.6164 21.8674L22.6734 22.6091ZM15.7264 17.8298C16.0623 17.7052 16.5887 17.806 16.5708 18.2909C16.5665 18.4007 16.7206 18.4007 16.7318 18.2885C16.8323 17.5626 16.3417 17.3534 15.8284 17.4385C15.7646 17.1889 15.7124 16.9707 15.653 16.7544C15.6056 16.5794 15.5882 16.2509 15.7907 16.2509C15.8999 16.2509 15.856 16.5566 15.8458 16.6883C15.8366 16.8038 15.8782 16.8737 15.972 16.877C16.0304 16.8794 16.1034 16.8048 16.1469 16.7553C16.4408 16.423 16.5089 15.9086 16.1648 15.6605C15.8767 15.4522 15.1556 15.6072 14.9574 15.9039C14.9275 15.7922 14.7844 15.6077 14.7158 15.5274C14.6491 15.4489 14.6317 15.3952 14.724 15.3263C14.7675 15.293 14.899 15.1622 14.899 15.0272C14.899 14.9474 14.8371 14.8 14.6404 14.8C14.4852 14.8 14.3127 14.9074 14.3127 15.147C14.3127 15.2003 14.3257 15.2573 14.36 15.3187C14.2619 15.3025 13.9956 15.3091 13.8588 15.3429L15.7501 20.533C16.2914 20.2658 16.6883 19.8427 16.6883 19.3886C16.6883 19.0017 16.1184 19.13 15.8415 19.4319C15.7525 18.9413 15.6733 18.4882 15.5867 18.0366C15.5631 17.912 15.6264 17.8673 15.7264 17.8298ZM13.0521 14.3041L13.4494 15.408C13.1092 15.4889 12.562 15.737 12.562 16.0655C12.562 16.5029 13.3359 16.7877 13.7834 16.7534C13.7612 16.8533 13.7868 16.9422 13.8564 17.0235C13.694 17.0235 13.3876 17.0991 13.287 17.2075C13.0497 16.9864 12.6785 16.906 12.5021 17.0406C12.3247 17.1761 12.3194 17.4057 12.5045 17.6653C12.6336 17.845 12.6819 18.0223 12.5369 18.2305C13.0763 18.2305 12.8777 17.5293 13.0889 17.5293C13.0613 17.6653 13.0782 17.8226 13.1396 17.9971C13.1802 18.1131 13.1802 18.1954 13.1106 18.3071C12.9366 18.5852 12.666 19.2241 12.7027 19.8018C12.5258 19.8008 12.4359 19.7576 12.4982 19.5161C12.5214 19.4262 12.4659 19.362 12.3924 19.4728C12.3112 19.595 12.272 19.8037 12.272 19.893C12.272 20.4074 12.8849 20.5111 13.1188 20.4022C13.7955 21.0571 15.1247 20.8824 15.5698 20.6627L13.2295 14.2414C13.1817 14.1201 13.0101 14.1781 13.0521 14.3041ZM12.9709 19.5935C12.9226 19.3292 13.2904 18.8567 13.7583 18.4007C13.6587 18.6979 13.7206 19.2099 13.9159 19.3863C13.5766 19.3863 13.1735 19.45 12.9709 19.5935Z"/>
</svg>
