<svg width="110" height="122" viewBox="0 0 110 122" fill="none" xmlns="http://www.w3.org/2000/svg">
<path fill-rule="evenodd" clip-rule="evenodd" d="M88.561 102.501C88.3709 102.501 87.9482 103.94 88.3834 104.961C88.615 105.504 89.1595 105.734 89.6149 105.582C90.0638 105.432 90.1944 105.004 90.2068 104.672C90.249 103.553 89.2686 102.501 88.561 102.501ZM85.2969 86.1795L85.4397 87.7599L84.0767 87.6076V89.4071L85.4397 89.2552L85.2969 90.9057H87.1483L87.0051 89.2552L88.3681 89.4071V87.6076L87.0051 87.7599L87.1483 86.1795H85.2969ZM86.225 92.4073C85.8563 92.4073 85.5574 92.7132 85.5574 93.0908C85.5574 93.4682 85.8563 93.7743 86.225 93.7743C86.5936 93.7743 86.8925 93.4682 86.8925 93.0908C86.8925 92.7132 86.5936 92.4073 86.225 92.4073ZM86.225 95.1747C85.8563 95.1747 85.5574 95.4808 85.5574 95.8582C85.5574 96.2358 85.8563 96.5417 86.225 96.5417C86.5936 96.5417 86.8925 96.2358 86.8925 95.8582C86.8925 95.4808 86.5936 95.1747 86.225 95.1747ZM86.225 97.9819C85.8563 97.9819 85.5574 98.288 85.5574 98.6654C85.5574 99.0433 85.8563 99.3492 86.225 99.3492C86.5936 99.3492 86.8925 99.0433 86.8925 98.6654C86.8925 98.288 86.5936 97.9819 86.225 97.9819ZM88.3808 98.6654C88.3808 99.0433 88.6797 99.3492 89.0484 99.3492C89.417 99.3492 89.7159 99.0433 89.7159 98.6654C89.7159 98.288 89.417 97.9819 89.0484 97.9819C88.6797 97.9819 88.3808 98.288 88.3808 98.6654ZM91.1788 98.6654C91.1788 99.0433 91.478 99.3492 91.8466 99.3492C92.2153 99.3492 92.5142 99.0433 92.5142 98.6654C92.5142 98.288 92.2153 97.9819 91.8466 97.9819C91.478 97.9819 91.1788 98.288 91.1788 98.6654ZM86.225 101.74C85.6536 101.74 84.2437 104.644 85.2946 106.113C85.4955 106.394 85.8479 106.552 86.225 106.552C86.602 106.552 86.9544 106.394 87.1554 106.113C88.2063 104.644 86.7963 101.74 86.225 101.74ZM83.889 102.501C83.1813 102.501 82.201 103.553 82.2431 104.672C82.2553 105.004 82.3862 105.432 82.835 105.582C83.2904 105.734 83.8349 105.504 84.0666 104.961C84.5017 103.94 84.079 102.501 83.889 102.501ZM82.8028 98.6654C82.8028 99.0433 83.1014 99.3492 83.4703 99.3492C83.8392 99.3492 84.1379 99.0433 84.1379 98.6654C84.1379 98.288 83.8392 97.9819 83.4703 97.9819C83.1014 97.9819 82.8028 98.288 82.8028 98.6654ZM80.0733 98.6654C80.0733 99.0433 80.3721 99.3492 80.7408 99.3492C81.1095 99.3492 81.4086 99.0433 81.4086 98.6654C81.4086 98.288 81.1095 97.9819 80.7408 97.9819C80.3721 97.9819 80.0733 98.288 80.0733 98.6654ZM79.4151 98.6654C79.4151 98.0827 79.5156 97.5576 79.5156 97.5576H85.0632V97.0759L85.0634 93.0148L85.0632 93.0143V91.8597C82.3854 92.33 80.2438 94.4005 79.6054 97.0751C79.4499 97.2974 78.9467 97.4113 78.592 97.3714C76.5448 97.1201 72.4018 96.3714 72.4018 95.4868C72.4018 94.2441 73.2413 93.7468 74.0479 93.7468C75.1983 93.7468 76.4694 94.3714 77.5277 92.8354C73.761 93.0082 76.6486 87.5528 73.559 86.5177C73.7122 87.9107 73.5603 90.3616 73.0731 91.6571C73.0731 91.6571 71.9659 90.4715 70.7227 90.0244C70.816 91.0357 70.627 93.1317 70.1759 94.086C70.1759 94.086 68.8596 92.8642 67.4943 92.4073C68.7538 94.2378 68.7107 96.8501 68.3717 98.4391C68.2735 98.8988 68.6153 99.4709 69.5758 99.4287C71.0781 99.3623 76.2094 99.5891 78.435 100.501C79.1269 100.785 79.7196 101.11 80.0093 101.605C80.245 102.271 80.8283 103.303 81.5464 103.832C81.8686 102.68 83.2427 101.447 84.1379 101.492C84.4053 101.505 84.7011 101.953 84.7623 102.391C84.8412 101.983 85.5016 100.856 86.225 100.856C86.8925 100.856 87.5339 101.799 87.7567 102.578C87.8239 102.078 88.119 101.543 88.3864 101.543C89.2853 101.543 90.4159 102.342 90.8419 103.662C91.187 103.231 92.7712 101.19 92.9501 99.8511H79.5156C79.5156 99.8511 79.4151 99.2716 79.4151 98.6654ZM87.3865 91.8607V97.5576H92.9389C92.4563 94.6531 90.2213 92.3603 87.3865 91.8607ZM21.8645 96.5515C21.981 96.5907 22.099 96.5629 22.2152 96.501C21.8409 97.0233 21.8564 97.3671 22.0175 97.528C22.2707 97.7793 22.4582 97.3174 23.0981 96.6364C23.7385 95.9564 24.1815 95.749 23.9293 95.4967C23.7667 95.3348 23.4297 95.3302 22.9266 95.7412C22.9822 95.621 23.0035 95.5013 22.9631 95.3843C22.7513 94.7703 21.7658 93.9526 21.2226 93.9509C21.1391 93.9509 21.0625 93.9706 20.9945 93.9989C21.2335 93.6144 21.1719 93.3239 21.012 93.1646C20.836 92.9895 20.7352 93.1123 20.5376 93.3656C20.5645 93.1886 20.5193 92.9812 20.3526 92.7281C19.5372 91.4912 15.2244 87.4184 14.2451 87.0092C13.6605 86.764 13.4687 87.1032 13.4687 87.1032C13.4687 87.1032 13.1452 87.3121 13.4009 87.9064C13.829 88.9006 17.9732 93.1532 19.1992 93.9536C19.4506 94.1173 19.6526 94.1572 19.8234 94.1244C19.5851 94.3335 19.4709 94.4414 19.646 94.6159C19.8061 94.7753 20.0908 94.8294 20.4571 94.5705C20.432 94.6417 20.4158 94.7202 20.4188 94.8064C20.4374 95.3648 21.2614 96.353 21.8645 96.5515ZM11.498 84.5026C11.3702 84.5026 11.1888 84.5329 11.0553 84.6746C10.9201 84.818 10.8726 85.0401 10.9218 85.2977C10.9759 85.5776 11.135 85.8617 11.3707 86.0971C11.6531 86.379 12.0083 86.5473 12.3196 86.5473C12.4482 86.5473 12.6284 86.518 12.7621 86.3763C13.0533 86.0663 12.9095 85.4146 12.4469 84.9534C12.1638 84.6718 11.8096 84.5026 11.498 84.5026ZM24.911 99.6205C24.9074 99.1903 24.0955 98.4684 23.1326 98.4684C21.7024 98.4684 21.0833 99.3787 21.0833 99.8425C21.0833 100.716 21.9237 100.828 22.1814 100.842C23.1879 100.905 24.811 99.8718 24.911 99.6205ZM23.6791 101.801C23.2991 102.29 23.1567 102.767 23.2549 103.22C23.3747 103.768 23.9143 104.014 24.3964 104.014C24.9044 104.014 25.3593 103.773 25.6135 103.369C26.1598 102.504 26.1839 100.588 25.9997 100.378C25.5417 100.378 24.3236 100.972 23.6791 101.801ZM11.1276 81.8532C10.7234 81.4498 9.89681 82.0509 9.40281 81.7713C9.62178 80.5395 10.49 81.8322 11.3291 80.9416C11.6635 80.5859 11.4841 80.0305 11.292 79.863C10.9305 80.231 10.371 80.1035 10.3281 79.8991C11.2803 77.639 9.41956 75.1194 7.63312 75.4352C7.9835 75.9062 8.08829 77.5435 7.93555 77.986C8.61577 78.4766 8.12965 79.6321 7.37889 79.2965C6.87551 79.0904 5.98749 77.8264 7.00871 76.936C6.97928 76.615 6.41754 76.5369 5.82054 77.3104C6.25846 75.8908 3.57715 76.3359 3.02607 76.6766C2.71272 77.2535 2.36538 80.0272 3.72912 79.5319C2.99765 80.1709 3.09102 80.7463 3.40335 80.767C4.23555 79.6885 5.48944 80.5634 5.7056 81.0749C6.05523 81.8378 4.94825 82.373 4.45096 81.6887C4.02547 81.8602 2.43287 81.8039 1.9645 81.4579C1.71484 83.306 4.21855 85.1413 6.38304 84.0913C6.58246 84.1292 6.72404 84.6996 6.37847 85.0838C6.54745 85.277 7.09142 85.4437 7.42659 85.0878C8.26437 84.1972 6.98207 83.3437 8.17126 83.0792C8.45821 83.5793 7.9013 84.4488 8.30497 84.8521C8.9517 85.4972 9.76386 84.2459 10.5618 84.1957C10.5851 83.3732 11.7741 82.4988 11.1276 81.8532ZM4.42508 78.9999C4.42508 78.9999 4.00669 78.7016 4.5083 78.155C5.02234 77.6213 5.32604 78.0429 5.32604 78.0429C5.32604 78.0429 5.7972 79.0962 5.93649 79.5809C5.46127 79.4528 4.42508 78.9999 4.42508 78.9999ZM8.56427 82.2032C8.30471 82.2361 7.6897 82.786 7.38143 82.4781L5.96998 81.0709L6.67558 80.3192L7.38396 79.569L8.79389 80.9779C9.10241 81.2848 8.58812 81.9355 8.56427 82.2032ZM31.9481 103.773C31.9958 103.562 31.9631 103.393 31.853 103.283C31.8185 103.249 31.7875 103.229 31.7688 103.229C31.6893 103.229 31.5125 103.449 31.342 103.662C31.1999 103.838 31.0231 104.057 30.7973 104.296C30.5725 104.536 30.3644 104.725 30.1975 104.877C29.9993 105.057 29.7938 105.244 29.7915 105.328C29.7915 105.347 29.8118 105.379 29.8478 105.415C29.9209 105.488 30.0186 105.524 30.1373 105.524C30.3187 105.524 30.7118 105.431 31.3034 104.802C31.7525 104.325 31.9022 103.979 31.9481 103.773ZM31.9565 105.453C31.649 105.78 31.3364 106.013 31.1636 106.132C31.2862 106.257 31.635 106.478 32.0709 106.478C32.3198 106.478 32.5522 106.404 32.7644 106.259C33.1995 105.539 32.7796 104.803 32.5908 104.615C32.4804 104.797 32.2638 105.127 31.9565 105.453ZM27.1939 101.448C26.9699 101.659 26.452 103.12 26.6781 104.01C26.7753 104.392 26.9851 104.555 27.3401 104.536C27.7072 104.512 27.9074 104.32 27.9693 103.93C28.1101 103.041 27.4383 101.628 27.1939 101.448ZM26.9105 97.3856C26.9232 97.4106 29.5675 99.7435 30.4547 100.588C30.6638 100.787 30.952 100.833 31.2446 100.684C31.4118 100.598 31.6196 100.5 31.8347 100.401C34.479 99.4636 38.8285 99.358 40.4239 99.4287C41.3845 99.4709 41.7237 98.8996 41.6281 98.4391C41.3155 96.9352 41.2457 94.2378 42.5054 92.4073C41.1402 92.8642 39.8239 94.086 39.8239 94.086C39.3725 93.1317 39.1835 91.0357 39.2768 90.0244C38.0339 90.4715 36.9264 91.6571 36.9264 91.6571C36.4395 90.3616 36.2873 87.9107 36.4408 86.5177C33.351 87.5528 36.2388 93.0082 32.4718 92.8354C33.5303 94.3714 34.8015 93.747 35.9518 93.747C36.7584 93.747 37.7604 94.2767 37.598 95.4868C37.4802 96.3633 32.4259 97.4545 30.3933 97.4545C28.9725 97.4545 28.0211 97.0145 27.3081 96.0254C26.9651 95.55 26.6152 95.3348 26.2234 95.3952C25.7371 95.4704 25.1685 95.969 25.1685 97.1236C25.1685 97.9415 25.4981 99.7346 26.4772 99.7346C27.165 99.7346 27.1954 98.3176 26.9105 97.3856ZM30.1784 103.679C30.64 103.188 30.8016 102.83 30.6874 102.551C30.5225 102.148 29.4728 100.976 28.0987 99.6538C28.0566 99.9445 27.9807 100.252 27.9155 100.461C28.8416 101.688 29.1874 103.005 28.8753 104.112C28.9882 104.187 29.0583 104.222 29.0994 104.238C29.4548 104.379 29.8986 103.977 30.1784 103.679ZM23.4921 97.0057C23.4853 97.0127 23.3143 97.1817 23.2037 97.4095C23.4911 97.4113 23.826 97.4608 24.1272 97.5422C24.1072 97.2747 24.0874 96.9127 24.1135 96.6003C23.8593 96.6576 23.5863 96.9031 23.4921 97.0057ZM69.6786 105.435C70.5491 105.037 71.1768 103.96 71.342 102.905C70.7904 103.176 70.1685 103.308 69.4515 103.308C67.4791 103.308 65.001 102.211 62.7551 101.217C62.7551 101.217 62.2707 101.624 61.4682 101.709C63.7344 102.406 68.1877 104.878 68.515 106.463C68.7337 107.524 68.0426 107.929 68.0426 107.929C67.0518 106.312 64.4981 103.801 61.0899 102.545C61.097 103.136 60.9836 103.551 60.9836 103.551C60.9836 103.551 60.292 103.721 58.8229 103.466C60.1075 104.538 63.4817 108.324 63.8479 111.196C64.0922 113.114 62.7523 113.202 62.7523 113.202C62.561 110.318 61.0483 107.333 58.3183 104.337C58.3183 104.337 57.8707 105.038 57.2757 105.393C57.2757 105.393 56.2675 105.214 55.4307 104.66C55.7529 108.466 55.9432 113.409 55.7433 114.906C55.6037 115.947 55.0001 116.384 55.0001 116.384C55.0001 116.384 54.3942 115.947 54.2544 114.906C54.0548 113.409 54.2448 108.466 54.567 104.66C53.7305 105.214 52.722 105.393 52.722 105.393C52.127 105.038 51.68 104.337 51.68 104.337C48.9494 107.333 47.4367 110.318 47.2457 113.202C47.2457 113.202 45.9058 113.114 46.1501 111.196C46.5162 108.324 49.8905 104.538 51.1748 103.466C49.7058 103.721 49.0141 103.551 49.0141 103.551C49.0141 103.551 48.9007 103.136 48.9078 102.545C45.4998 103.801 42.9464 106.312 41.9551 107.929C41.9551 107.929 41.264 107.524 41.4829 106.463C41.81 104.878 46.2633 102.406 48.5298 101.709C47.7272 101.624 47.2426 101.217 47.2426 101.217C44.997 102.211 42.5186 103.308 40.5462 103.308C39.8294 103.308 39.2073 103.176 38.656 102.905C38.8209 103.96 39.4489 105.037 40.3191 105.435C37.2719 107.579 39.1535 112.604 35.0669 111.659C37.3458 115.89 41.9551 116.315 41.9551 116.315C40.9339 114.077 42.2071 107.249 48.3245 104.146C44.5588 107.9 42.8431 112.452 43.8423 115.664C44.759 118.611 47.7389 119.806 49.9826 119.857C48.396 114.984 49.3739 109.402 52.6667 105.888C51.2555 109.742 49.2716 120.027 55.0001 122C60.7281 120.027 58.7425 109.742 57.3311 105.888C60.6243 109.402 61.6017 114.984 60.0152 119.857C62.2588 119.806 65.2388 118.611 66.1557 115.664C67.1546 112.452 65.4389 107.9 61.6735 104.146C67.7912 107.249 69.0638 114.077 68.0426 116.315C68.0426 116.315 72.6522 115.89 74.9309 111.659C70.8442 112.604 72.726 107.579 69.6786 105.435ZM55.4863 20.665C55.4863 20.3631 55.2478 20.1171 54.9555 20.1171C54.6624 20.1171 54.4247 20.3631 54.4247 20.665C54.4247 20.9678 54.6624 21.2141 54.9555 21.2141C55.2478 21.2141 55.4863 20.9678 55.4863 20.665ZM58.1643 20.665C58.1643 20.3631 57.9268 20.1171 57.6335 20.1171C57.341 20.1171 57.1032 20.3631 57.1032 20.665C57.1032 20.9678 57.341 21.2141 57.6335 21.2141C57.9268 21.2141 58.1643 20.9678 58.1643 20.665ZM54.0035 6.43847C54.0035 7.00401 54.4491 7.46574 54.9968 7.46574C55.5454 7.46574 55.9907 7.00401 55.9907 6.43847C55.9907 5.87217 55.5454 5.41094 54.9968 5.41094C54.4491 5.41094 54.0035 5.87217 54.0035 6.43847ZM54.3232 4.25586H55.6758L55.5296 2.61858L56.9989 2.77544V1.48017L55.5296 1.63652L55.6758 0H54.3232L54.4688 1.63652L52.9998 1.48017V2.77544L54.4688 2.61858L54.3232 4.25586ZM52.8082 20.665C52.8082 20.3631 52.5697 20.1171 52.277 20.1171C51.9844 20.1171 51.7462 20.3631 51.7462 20.665C51.7462 20.9678 51.9844 21.2141 52.277 21.2141C52.5697 21.2141 52.8082 20.9678 52.8082 20.665ZM49.6203 22.6971C49.7639 22.7488 49.9298 22.7769 50.1262 22.7769H59.8731C60.0697 22.7769 60.2356 22.7488 60.3787 22.6971C60.6934 22.5839 60.8847 22.3472 60.959 21.9688H49.04C49.1141 22.3472 49.3054 22.5839 49.6203 22.6971ZM50.1561 20.665C50.1561 20.3631 49.9181 20.1171 49.6251 20.1171C49.3325 20.1171 49.094 20.3631 49.094 20.665C49.094 20.9678 49.3325 21.2141 49.6251 21.2141C49.9181 21.2141 50.1561 20.9678 50.1561 20.665ZM60.8167 20.665C60.8167 20.3631 60.5782 20.1171 60.2864 20.1171C59.9933 20.1171 59.7551 20.3631 59.7551 20.665C59.7551 20.9678 59.9933 21.2141 60.2864 21.2141C60.5782 21.2141 60.8167 20.9678 60.8167 20.665ZM61.4538 19.3649C61.7285 19.0232 63.0946 16.3758 63.0946 13.7032C63.0946 11.2978 60.0783 9.97369 58.2838 9.91307C58.076 13.3493 56.7407 18.7428 55.0001 18.7428C53.3527 18.7428 51.9212 13.3803 51.716 9.91307C49.9217 9.97369 46.9054 11.2978 46.9054 13.7032C46.9054 16.3758 48.271 19.0232 48.546 19.3649H61.4538ZM55.0001 17.0363C55.8196 17.0363 56.8789 13.6145 57.1497 10.3758C57.1497 9.72009 56.3296 8.71706 55.0001 8.69105C53.6699 8.71706 52.8499 9.72009 52.8499 10.3758C53.0876 13.396 54.1928 17.0363 55.0001 17.0363ZM28.9423 34.5033C27.3517 36.6952 29.5512 39.0943 29.687 39.26C29.7826 39.377 29.8646 39.3242 29.8501 39.1931C29.8385 39.0804 30.9947 35.7003 37.651 37.4803C37.7933 37.5184 37.8806 37.5212 37.7472 37.383C36.5176 36.4063 35.0587 34.2171 34.5871 32.456C34.5871 32.456 30.5331 32.3113 28.9423 34.5033ZM32.5106 34.0448C32.5106 33.4325 33.3997 33.2636 33.9107 33.2636C33.9107 33.2636 34.1349 33.8549 34.36 34.1822C33.8414 33.9498 33.1211 33.9261 32.5106 34.0448ZM36.0439 31.1845C35.6012 31.1845 35.4358 31.4669 35.5804 31.9559C37.1098 37.1218 41.2792 38.3469 42.9253 40.5843C42.9253 40.5843 42.9137 39.8872 43.6774 38.2241C44.197 39.0794 45.6049 40.6813 46.5198 40.8852C46.3011 40.4244 46.041 38.6055 46.2437 37.3833C48.4044 39.2774 51.068 39.6497 52.4974 38.5568C51.2803 38.6035 49.6956 37.2461 48.8979 36.042C50.0117 36.2999 51.545 36.034 51.8611 35.7134C51.1575 35.5414 50.3043 34.916 49.7905 34.3217C50.5808 34.2668 52.2955 33.6177 52.7857 32.7028C52.0981 32.8592 51.0786 32.5778 50.4149 32.2259C50.9206 31.9521 52.1823 30.5967 52.485 29.4073C50.6932 30.2878 47.866 31.1638 43.6779 31.1638C43.6779 31.1638 36.2776 31.1845 36.0439 31.1845ZM40.6672 33.5394C39.4831 34.0095 38.8899 34.6442 38.8899 34.6442C38.8899 34.6442 38.3218 33.7096 38.1404 33.4093C37.959 33.109 37.9022 32.741 38.5142 32.741H42.1847C42.1847 32.9918 41.8511 33.0693 40.6672 33.5394ZM28.137 41.945C28.5199 42.4542 29.604 44.0094 31.9819 42.6189C34.3595 41.2284 35.5857 40.4714 35.5857 40.4714C35.5857 40.4714 35.2143 41.189 35.4962 42.0493C35.5126 42.0988 35.5685 42.0966 35.59 42.0455C35.8268 41.4886 37.8918 39.8773 40.5251 39.6543C39.5597 38.8089 38.5005 38.0554 38.5005 38.0554C37.3755 38.2373 35.1947 39.0082 32.3739 40.8437C29.5528 42.6793 28.2532 41.9127 28.1992 41.8783C28.1454 41.8437 28.069 41.8546 28.137 41.945ZM61.8323 100.551C62.2385 100.421 62.5785 100.214 62.7533 99.9806C60.9313 99.9016 59.4273 98.3257 58.8765 97.3532C58.2713 98.3565 57.1908 99.1403 57.1908 99.1403C56.4215 98.937 55.3701 98.0974 54.9999 97.455C54.6297 98.0974 53.5783 98.937 52.8088 99.1403C52.8088 99.1403 51.7284 98.3565 51.123 97.3532C50.5725 98.3257 49.0684 99.9016 47.2462 99.9806C47.4213 100.214 47.7612 100.421 48.1674 100.551C48.4394 100.638 48.7403 100.692 49.0435 100.692C49.3645 100.692 49.6867 100.634 49.9757 100.498C49.7938 101.161 49.7332 101.979 49.8664 102.539C49.8664 102.539 50.8353 102.616 51.8357 102.237C51.9078 102.843 52.1838 103.576 52.6365 104.072C52.7255 104.169 52.8186 104.261 52.9209 104.337C53.4583 104.337 54.7555 103.709 54.9999 103.323C55.2442 103.709 56.5415 104.337 57.0789 104.337C57.1811 104.261 57.2742 104.169 57.3633 104.072C57.8159 103.576 58.092 102.843 58.1638 102.237C58.6139 102.464 59.1365 102.554 59.715 102.554C59.8513 102.554 59.9908 102.549 60.1331 102.539C60.2666 101.979 60.206 101.161 60.0238 100.498C60.313 100.634 60.6353 100.692 60.956 100.692C61.2597 100.692 61.5603 100.638 61.8323 100.551ZM43.6474 61.632C43.2904 61.632 43.0692 61.8603 43.0692 62.2278V84.5415C43.0692 86.669 43.9062 87.7486 45.5569 87.7486L49.6872 87.7645C52.5172 87.7645 54.1867 88.7402 54.9999 89.9496C55.6915 88.8218 57.6348 87.7645 60.3128 87.7645L64.4418 87.7486C66.0928 87.7486 66.9298 86.669 66.9298 84.5415V62.2278C66.9298 61.8603 66.7083 61.632 66.3523 61.632H43.6474ZM47.6813 82.5084C47.6417 83.0022 48.2146 83.9004 49.1603 83.6193C49.1318 83.8016 49.1849 84.3 49.3962 84.6738C47.7209 85.054 46.9983 83.6738 47.6813 82.5084ZM62.8708 75.1217C62.6402 74.8762 62.4121 74.6284 62.1885 74.3778C61.9495 74.1116 61.779 74.0083 61.5352 74.0083C60.9869 74.0083 60.4003 74.3091 60.0865 74.5173C60.0657 74.5258 60.0499 74.546 60.0421 74.6003C60.3754 74.5705 60.7099 74.546 61.0422 74.5084C61.334 74.4746 61.6065 74.4862 61.8579 74.6739C62.0561 74.8209 62.1677 75.003 62.1784 75.2407C62.2101 76.0002 62.8155 77.5986 62.853 78.0785C62.9002 78.2672 62.6736 78.3222 62.3598 79.2045C62.1281 79.4639 61.5017 78.6405 61.5925 78.4478C61.9574 77.9711 62.0581 77.6741 61.9655 77.319C61.8914 77.0335 61.7524 76.5236 61.6496 76.2472C61.5119 75.8784 61.2021 75.7403 60.8172 75.8724C59.307 76.3743 59.0741 75.7054 57.5774 76.3346L59.3012 79.0065C59.2949 78.813 59.2022 78.4634 58.9234 78.2121C58.9736 77.9423 59.5174 77.8307 59.7206 78.0833C59.97 78.4036 60.4564 78.8602 60.8568 78.9335C61.626 79.076 61.5679 80.2457 63.6233 80.6372C63.3678 80.9024 62.7977 80.8125 62.5493 80.6925C62.6993 80.9247 62.8718 81.1434 63.1816 81.2227C62.8629 81.543 61.9485 80.7923 62.0421 81.5478C62.2002 81.4561 62.4192 81.4412 62.6044 81.4879C63.0146 81.5905 63.6875 83.9259 62.2702 84.9466C62.5719 85.0373 62.8964 84.8776 63.2024 84.8776C63.3818 84.8776 63.5495 85.0519 63.5672 85.2464C63.6994 85.348 63.7862 85.4727 63.8631 85.6326C63.7565 85.668 63.5505 85.6352 63.4361 85.5591C63.4823 85.6885 63.4713 86.0002 63.4231 86.006C63.295 86.0234 63.1963 85.9496 63.0651 85.8713C62.8827 85.965 62.2832 85.9267 62.1134 85.7746C61.6608 85.885 61.214 86.033 60.7423 86.033C60.4878 86.033 60.1524 86.0166 60.1644 85.7051C60.1702 85.5531 60.2453 85.4748 60.3044 85.3086C60.0875 85.085 59.7257 85.3015 59.2943 85.3432C58.7098 85.3995 58.4687 85.3086 58.3419 85.1893C58.894 84.6773 58.5608 83.4296 57.7083 83.3192C58.4096 83.9926 58.318 85.082 57.533 85.3268C57.7598 85.4003 57.8722 85.5028 57.959 85.6645C58.2351 85.7794 58.2391 85.9799 58.2183 86.0696C58.0674 85.9623 57.7954 85.8562 57.5784 85.885C57.5627 85.9799 57.5231 86.1578 57.4412 86.2265C57.3475 86.206 57.2253 86.1199 57.1778 86.0514C56.9271 85.8587 55.3652 86.2265 55.2703 85.9691C55.2102 85.7299 55.6273 85.5288 56.012 85.4439C55.0227 85.08 54.1644 83.2128 52.6413 82.8966C51.9349 82.7504 50.9779 83.0686 50.9779 83.9898C50.9779 84.4424 51.341 84.7908 51.7335 84.7908C52.0948 84.7908 52.2754 84.5404 52.2754 84.2868C52.2173 84.331 52.1813 84.3583 52.1458 84.3874C51.9248 84.5692 51.6432 84.5576 51.4394 84.3583C51.26 84.183 51.26 83.8784 51.4341 83.6723C51.5772 83.501 51.7492 83.4043 51.9791 83.3705C52.5753 83.2833 53.063 83.474 53.3915 83.9539C53.5481 84.183 53.6346 84.4278 53.6346 84.665C53.6346 85.7263 52.5743 85.9673 51.9875 85.9673C50.5103 85.9673 49.6398 84.907 49.6398 83.6801C49.6398 83.5369 49.6469 83.3919 49.6712 83.2459C49.9024 81.8653 51.1322 81.2879 52.1963 81.1153C52.0605 80.6347 51.7984 80.2465 51.4222 79.9292C51.2349 79.7716 51.2159 79.6428 51.3339 79.4417C51.4947 79.1666 51.6635 78.8961 51.7345 78.5862C51.7507 78.5167 51.7581 78.4432 51.7632 78.3677C51.2334 78.8438 50.4928 79.28 49.468 79.5915C49.1448 79.7413 48.9738 80.0365 48.9327 80.376C48.886 80.7701 48.8751 81.1697 48.868 81.5672C48.8662 81.6589 48.9324 81.7587 48.9827 81.8466C49.1734 82.1747 49.384 82.494 49.431 82.9032C49.431 83.1014 48.4361 83.1219 48.4361 82.963C48.4268 82.2434 47.9475 81.9638 47.999 81.4887C48.1314 80.7496 48.1609 80.0105 48.0403 79.2677C48.0099 79.0808 48.1091 78.9577 48.242 78.8582C48.4534 78.6966 48.6779 78.5523 48.889 78.3919C49.3871 78.0105 49.5931 77.5135 49.4761 76.8971C49.4609 76.8168 49.4256 76.7395 49.3909 76.664C49.143 76.1156 48.9621 75.5602 48.9621 74.9418C48.9621 74.2636 48.1236 74.3023 48.1784 74.9689C48.1956 75.177 48.3506 75.4682 48.4377 75.6683C49.2973 77.6509 47.7516 79.0787 46.1529 79.0777C47.8335 78.4945 45.7602 76.3379 45.7602 74.7289C45.7602 73.7423 46.5208 73.0128 47.4284 73.0128C48.4752 73.0128 49.1389 73.689 49.329 73.8052C49.8354 73.0002 51.3861 72.855 51.9682 72.7623C51.9238 72.3288 51.9847 71.9436 52.2498 71.611C52.2671 71.5885 52.278 71.5468 52.2686 71.5228C52.1859 71.3177 52.0978 71.1154 51.9837 70.9171C51.5062 71.4571 51.3917 72.1732 51.3917 72.5435C49.6238 72.5175 48.8441 71.7416 48.3217 71.4359C48.3237 71.301 48.7939 70.4526 49.211 69.8926C48.7538 70.2854 48.378 70.7277 48.102 71.2579C47.8493 71.075 47.5836 70.9095 47.3238 70.8012C47.7222 69.9459 48.2502 69.2801 48.923 68.5845C47.9756 68.9348 47.151 70.0086 46.8385 70.683C46.5683 70.6521 46.1689 70.6415 45.9459 70.685C46.9785 69.4195 47.4504 66.9262 49.7205 66.367C49.1519 68.6792 50.5659 69.6188 51.5396 69.0154C51.4128 69.0154 51.326 69.0356 51.2443 69.0154C49.346 68.5327 50.471 65.8979 50.0112 65.3493C49.8367 65.1414 49.7466 64.9507 49.775 64.6875C49.7852 64.5948 49.7578 64.4875 49.7154 64.4021L48.7058 62.7128C48.5787 62.5001 48.9717 62.3488 49.0565 62.4466L50.0861 64.1359C50.1127 64.1783 50.1455 64.2402 50.1838 64.2473C50.5603 64.3137 50.6767 64.6264 50.829 64.903C50.8772 64.9922 50.9152 65.0947 50.9241 65.1955C50.9312 65.2725 50.9102 65.3801 50.8589 65.4324C50.6953 65.5986 50.727 65.7618 50.8536 65.9772C51.0568 66.3225 57.156 76.4937 57.156 76.4937C55.8313 77.0366 53.4349 77.0808 52.7408 77.0133C52.5969 77.3664 52.3716 77.7388 52.0387 78.0977C52.3711 77.881 52.6281 77.6061 52.8656 77.3073C53.1335 77.3384 53.5354 77.4457 53.9462 77.4758C53.7031 77.9961 53.3383 78.5137 52.8696 78.9474C52.6492 79.1649 52.3762 79.3573 52.4766 79.7057C52.5898 80.0977 53.318 80.8446 53.5836 81.3293C53.8472 81.3851 54.2923 81.4791 54.6185 81.6097C54.8048 82.0103 55.4345 82.5134 56.1936 82.253C54.6675 82.2338 54.7802 80.6683 55.2544 79.8403C55.2031 80.6094 55.574 81.2477 56.0437 81.3204C55.3394 80.6769 55.4099 79.2151 56.0959 78.4132C56.1936 79.7153 56.5879 80.3995 57.1522 80.5541C56.4065 79.8673 55.9589 78.2778 57.0849 77.1197C57.172 80.0916 59.8901 79.5556 60.137 82.9961C61.1437 82.9961 61.2011 81.6387 60.6398 81.3892C60.3123 81.2664 60.0164 81.0504 59.8487 80.7564C59.7789 80.6327 59.7066 80.4121 59.6496 80.2823C59.3504 79.3983 58.5055 79.4543 58.5261 79.2424C58.5459 79.1707 58.6791 79.1378 58.8656 79.1378L57.2737 76.6754L57.1905 76.5468C57.3826 76.5079 57.4252 76.396 57.228 76.0846C57.228 76.0846 51.254 66.1386 51.2255 66.0816C51.7809 65.9851 52.3145 66.1359 52.8341 66.3372C52.6953 66.2084 52.5822 66.0285 52.5581 65.8429C52.538 65.6938 52.5436 65.6067 52.6636 65.512C52.7907 65.4082 52.9125 65.2884 53.0016 65.1531C53.2982 64.7014 53.8432 64.4807 54.3384 64.6219C55.0856 64.8345 55.35 65.6805 54.8007 66.1253C54.5084 66.7706 54.1459 66.6893 54.0713 66.9785C54.2179 67.0465 55.2399 67.8368 55.3081 68.1695C55.0034 68.8042 54.852 69.7966 55.1163 70.3503C55.3137 67.7118 56.9007 66.4213 58.4464 66.4213C58.8133 66.4213 59.1781 66.4852 59.544 66.61C59.7442 66.6777 59.9444 66.7752 60.1111 66.902C60.3518 67.0861 60.5787 67.295 60.7819 67.5185C61.0836 67.8502 61.3599 68.2046 61.8729 68.2276C61.723 68.4415 61.5522 68.5981 61.3774 68.7519C61.2513 68.8651 61.1881 69.0007 61.1726 69.171C61.1369 69.5375 61.0166 69.8732 60.7474 70.1429C60.7119 70.178 60.6822 70.2255 60.6654 70.2717C60.4939 70.7701 60.3201 71.2664 60.1588 71.7676C60.1189 71.8896 60.1278 72.0581 59.9632 72.056C59.8203 72.054 59.6475 72.0123 59.541 71.9252C59.3144 71.7416 59.2332 71.4743 59.3144 71.1919C59.3951 70.9113 59.3144 70.6703 59.2256 70.4092C59.1345 70.148 59.103 69.8656 59.0419 69.5675C58.62 69.4195 57.8278 70.3271 58.4325 71.0876C58.8252 71.6484 59.1781 72.6809 59.2393 73.1035C59.252 73.1452 58.882 73.3786 58.3723 73.3134C56.6493 73.0929 55.5596 71.8954 55.2285 70.8853C55.2016 72.5966 56.6206 73.8651 58.7235 73.7423C58.8092 74.1409 59.1345 74.4117 59.5136 74.4243C59.5922 74.1669 59.5904 73.6269 59.5262 73.2836C59.4976 73.1326 59.5767 73.0553 59.7165 73.0194C60.1763 72.9025 60.7748 72.9479 61.2868 72.765C61.7407 72.6016 61.9556 72.6973 62.2378 73.247C62.4519 73.6617 62.8175 74.108 63.1628 74.4157C63.3077 74.5443 63.4528 74.6749 63.5898 74.8123C63.7644 74.9873 63.8552 75.1934 63.8689 75.4478C63.8238 75.8466 63.8768 76.6493 63.8768 76.662C63.7771 76.9252 63.0502 76.6466 62.9329 76.3639C62.8885 76.2586 63.2438 75.5185 62.8708 75.1217ZM75.4124 32.456C74.941 34.2171 73.4821 36.4063 72.2526 37.383C72.1191 37.5212 72.2064 37.5184 72.3488 37.4803C79.0049 35.7003 80.1613 39.0804 80.1494 39.1931C80.1352 39.3242 80.2171 39.377 80.3125 39.26C80.4485 39.0943 82.648 36.6952 81.0574 34.5033C79.4664 32.3113 75.4124 32.456 75.4124 32.456ZM75.6398 34.1822C75.8645 33.8549 76.0893 33.2636 76.0893 33.2636C76.6001 33.2636 77.4889 33.4325 77.4889 34.0448C76.8784 33.9261 76.1584 33.9498 75.6398 34.1822ZM81.8628 41.945C81.9308 41.8546 81.8541 41.8437 81.8003 41.8783C81.7466 41.9127 80.4467 42.6793 77.6259 40.8437C74.8048 39.0082 72.6243 38.2373 71.4993 38.0554C71.4993 38.0554 70.44 38.8089 69.4744 39.6543C72.1077 39.8773 74.173 41.4886 74.4097 42.0455C74.4315 42.0966 74.4869 42.0988 74.5033 42.0493C74.7855 41.189 74.4138 40.4714 74.4138 40.4714C74.4138 40.4714 75.64 41.2284 78.0176 42.6189C80.3957 44.0094 81.4796 42.4542 81.8628 41.945ZM59.5849 32.2259C58.9211 32.5778 57.9017 32.8592 57.2141 32.7028C57.7043 33.6177 59.4189 34.2668 60.209 34.3217C59.6955 34.916 58.842 35.5414 58.1386 35.7134C58.4548 36.034 59.9878 36.2999 61.1018 36.042C60.3039 37.2461 58.7192 38.6035 57.5021 38.5568C58.9318 39.6497 61.5956 39.2774 63.756 37.3833C63.9585 38.6055 63.6987 40.4244 63.4797 40.8852C64.3946 40.6813 65.8028 39.0794 66.3224 38.2241C67.0858 39.8872 67.0744 40.5843 67.0744 40.5843C68.7208 38.3469 72.8899 37.1218 74.4194 31.9559C74.564 31.4669 74.3983 31.1845 73.9558 31.1845C73.7221 31.1845 66.3221 31.1638 66.3221 31.1638C62.1335 31.1638 59.3063 30.2878 57.5145 29.4073C57.8172 30.5967 59.0789 31.9521 59.5849 32.2259ZM71.4856 32.741C72.0973 32.741 72.0405 33.109 71.8593 33.4093C71.6779 33.7096 71.1096 34.6442 71.1096 34.6442C71.1096 34.6442 70.5164 34.0095 69.3325 33.5394C68.1487 33.0693 67.815 32.9918 67.815 32.741H71.4856ZM44.0996 40.4785C43.8611 41.1544 43.7908 41.9001 43.9176 42.87C44.6872 44.5419 45.0594 47.6464 44.8219 49.382C46.0479 47.6714 46.5924 45.7477 46.9432 44.2085C47.6463 44.9278 48.5584 45.9576 49.1948 46.7917C49.3041 45.8882 49.498 44.7725 49.6679 43.9667C50.5836 44.8414 52.484 45.9397 53.7691 46.3292C52.9039 42.6788 51.4237 40.3519 51.4237 40.3519C50.1675 40.4785 48.1441 40.1724 47.2345 39.2774C47.3969 40.6 48.3067 42.1206 48.3067 42.1206C46.3574 42.3108 44.9767 41.6454 44.0996 40.4785ZM65.8999 40.4785C65.0231 41.6454 63.6423 42.3108 61.693 42.1206C61.693 42.1206 62.6026 40.6 62.765 39.2774C61.8554 40.1724 59.8325 40.4785 58.5761 40.3519C58.5761 40.3519 57.0959 42.6788 56.2304 46.3292C57.516 45.9397 59.4161 44.8414 60.3318 43.9667C60.5018 44.7725 60.6954 45.8882 60.8047 46.7917C61.4413 45.9576 62.3532 44.9278 63.0568 44.2085C63.4074 45.7477 63.9519 47.6714 65.1779 49.382C64.9401 47.6464 65.3126 44.5419 66.0819 42.87C66.2087 41.9001 66.1384 41.1544 65.8999 40.4785ZM49.1329 51.9796C49.8686 53.1622 50.5232 54.5845 50.7501 55.8512C51.4552 54.9977 52.2001 53.5143 52.7047 51.7421C53.3236 52.5158 54.4044 54.0915 54.9999 55.3913C55.5951 54.0915 56.6762 52.5158 57.2948 51.7421C57.7997 53.5143 58.5446 54.9977 59.2499 55.8512C59.4765 54.5845 60.1311 53.1622 60.8666 51.9796C61.4261 54.2814 63.5842 56.5204 65.8111 56.6888C64.3624 54.8076 64.3025 51.556 64.405 50.4731C63.4404 48.9728 62.8051 47.6194 62.5011 46.6997C61.8468 47.3466 60.8347 48.6042 59.9266 50.0576C59.9266 50.04 59.9005 48.2352 59.5384 46.0438C58.6022 46.8899 56.9068 47.5025 56.0005 47.7404C55.4287 48.6732 55.2719 49.4009 54.9999 50.5717C54.7279 49.4009 54.5708 48.6732 53.9992 47.7404C53.0927 47.5025 51.3976 46.8899 50.4611 46.0438C50.0993 48.2352 50.0729 50.04 50.0729 50.0576C49.1646 48.6042 48.153 47.3466 47.4984 46.6997C47.1947 47.6194 46.5594 48.9728 45.5945 50.4731C45.6975 51.556 45.6371 54.8076 44.1884 56.6888C46.4158 56.5204 48.5737 54.2814 49.1329 51.9796ZM28.9542 79.2017C30.2043 78.3861 30.9952 76.9042 31.8956 75.0916C31.3714 75.3086 30.6118 75.5438 29.8506 75.7016C29.108 77.1384 28.0563 76.5811 28.0289 76.3773C28.2563 76.1252 28.5158 75.7529 28.7109 75.4288C28.3945 74.8365 28.0132 73.9542 27.8029 73.4086C26.7405 75.6458 24.7889 77.9183 23.1547 78.8049C24.1163 80.1419 27.0965 80.4139 28.9542 79.2017ZM32.8174 75.4311C31.9309 77.3023 32.1394 80.1861 34.9618 80.2677C34.7276 78.2257 35.6474 76.3046 36.6305 75.4311C35.7849 75.6395 34.4082 76.7489 34.4082 76.7489C34.4082 76.7489 34.2009 77.2245 34.1593 77.8398C33.5684 77.9454 33.2419 77.4902 33.4872 76.5407C33.4872 76.5407 33.0602 76.0525 32.8174 75.4311ZM18.846 77.5677C19.2576 77.5677 19.6729 77.517 20.0804 77.4167C22.8058 76.7433 25.4011 74.4124 26.9438 72.4554C26.0626 72.7345 25.1725 72.9156 24.1858 73.0156C24.1858 73.0156 23.4949 73.8241 22.9629 74.123C22.6932 74.2758 22.4237 74.3488 22.1685 74.3488C21.3974 74.3488 21.0701 73.7163 21.0701 73.7163C21.0701 73.7163 22.3136 73.1202 23.105 72.2735C22.9482 71.6494 22.8485 70.785 22.8304 69.9232C20.6845 72.0793 16.6508 74.174 13.8335 74.5806C14.391 75.7415 16.3695 77.5677 18.846 77.5677ZM13.3895 72.9946C13.5306 72.9946 13.6732 72.9876 13.813 72.9742C16.614 72.6974 19.9946 70.903 22.1715 69.3501C21.4786 69.491 19.6564 69.5317 18.792 69.4112C18.4931 69.6115 17.1748 70.4448 16.0779 70.5839C14.0774 70.8375 13.8658 69.5996 13.8658 69.5996C15.1511 69.4425 16.6328 69.0086 18.0491 68.349C18.1912 67.2824 18.438 66.3316 18.6489 65.6307C15.5609 67.3506 10.5232 68.5605 7.53467 68.6004C8.13269 70.0207 10.4512 72.9946 13.3895 72.9946ZM13.83 62.9043C14.2605 62.1427 14.9418 61.2425 15.5621 60.5082C13.0967 61.1874 9.92294 61.3294 8.24052 61.3294C6.25694 61.3294 4.32943 61.1892 3.22371 60.9674C3.3219 62.9603 5.21745 66.3983 8.95728 66.7337C9.15239 66.7517 9.36805 66.7603 9.59894 66.7603C11.9321 66.7603 15.6428 65.8161 18.1962 64.9101C16.3756 64.6757 14.6173 64.2435 14.2161 64.0753C13.2667 64.3478 10.9985 64.7282 10.2619 64.6875C8.59015 64.5958 8.41102 63.3119 8.41102 63.3119C8.41102 63.3119 11.4201 63.4392 13.83 62.9043ZM4.85234 59.2523C6.24171 59.7014 8.45745 59.9588 10.932 59.9588C12.4416 59.9588 14.0342 59.8237 15.3295 59.6396C13.9305 59.1632 12.2041 58.4431 11.0822 57.7297C9.67988 57.7017 7.77647 57.6618 6.5543 57.2875C4.75669 56.7373 4.78232 55.5077 4.81429 55.2316C6.36832 55.8566 9.01183 56.4544 10.9657 56.5709C11.686 55.877 12.7986 55.05 13.9726 54.3299C9.33609 54.3706 3.41705 52.534 0.0912848 50.773C-0.669114 56.9614 3.53274 58.8252 4.85234 59.2523ZM15.0445 46.4204C14.329 45.0473 13.6313 43.2004 13.5392 41.6083C11.3707 39.9041 8.89537 37.7356 7.46312 35.257C6.63549 33.8243 6.94097 32.5687 7.52706 32.1365C7.97412 33.693 10.8863 38.0514 13.5258 40.237C13.5466 38.8402 13.7815 37.2337 14.1456 36.0254C11.0766 32.6849 7.63667 27.1519 6.80574 24.9842C5.87154 25.7579 4.26168 27.7041 3.86588 30.4467C3.46754 33.2072 4.36241 36.043 6.52563 38.8758C8.18927 41.0546 11.8517 44.3034 15.0445 46.4204ZM14.1624 53.4408C12.0527 52.0415 10.5902 50.7432 9.8108 49.5772C8.04795 48.8914 5.76827 47.8445 4.64531 46.901C3.10244 45.606 3.59085 44.4403 3.77073 44.2074C5.12915 45.5949 8.07129 47.5947 10.1609 48.4845C11.4656 47.9758 13.2784 47.6032 15.0445 47.3858C9.81029 45.3173 4.19166 41.4343 1.25535 37.7738C0.660125 38.9301 -1.75859 44.3696 2.7759 48.8301C5.16391 51.1796 10.083 52.8007 14.1624 53.4408ZM82.1969 73.4086C81.9866 73.9542 81.6052 74.8365 81.2886 75.4288C81.4837 75.7529 81.7435 76.1252 81.9708 76.3773C81.9432 76.5811 80.8918 77.1384 80.1494 75.7016C79.388 75.5438 78.6283 75.3086 78.1041 75.0916C79.0046 76.9042 79.7952 78.3861 81.0455 79.2017C82.9033 80.4139 85.8835 80.1419 86.8448 78.8049C85.2106 77.9183 83.259 75.6458 82.1969 73.4086ZM77.1824 75.4311C76.9396 76.0525 76.5126 76.5407 76.5126 76.5407C76.7579 77.4902 76.4314 77.9454 75.8402 77.8398C75.7988 77.2245 75.5913 76.7489 75.5913 76.7489C75.5913 76.7489 74.2146 75.6395 73.369 75.4311C74.3521 76.3046 75.2719 78.2257 75.0379 80.2677C77.8603 80.1861 78.0689 77.3023 77.1824 75.4311ZM86.895 72.2735C87.6861 73.1202 88.9294 73.7163 88.9294 73.7163C88.9294 73.7163 88.6021 74.3488 87.8313 74.3488C87.5758 74.3488 87.3066 74.2758 87.0366 74.123C86.5048 73.8241 85.8139 73.0156 85.8139 73.0156C84.8272 72.9156 83.9369 72.7345 83.0557 72.4554C84.5986 74.4124 87.1939 76.7433 89.9191 77.4167C90.3266 77.517 90.7422 77.5677 91.1537 77.5677C93.63 77.5677 95.6088 75.7415 96.1662 74.5806C93.3489 74.174 89.3153 72.0793 87.1691 69.9232C87.151 70.785 87.0513 71.6494 86.895 72.2735ZM91.9504 68.349C93.3669 69.0086 94.8487 69.4425 96.1343 69.5996C96.1343 69.5996 95.9224 70.8375 93.9216 70.5839C92.825 70.4448 91.5064 69.6115 91.2078 69.4112C90.3433 69.5317 88.5209 69.491 87.8282 69.3501C90.0051 70.903 93.3857 72.6974 96.1865 72.9742C96.3266 72.9876 96.4692 72.9946 96.6102 72.9946C99.5486 72.9946 101.867 70.0207 102.465 68.6004C99.4763 68.5605 94.4389 67.3506 91.3509 65.6307C91.5617 66.3316 91.8083 67.2824 91.9504 68.349ZM94.4374 60.5082C95.0577 61.2425 95.739 62.1427 96.1695 62.9043C98.5796 63.4392 101.588 63.3119 101.588 63.3119C101.588 63.3119 101.41 64.5958 99.7381 64.6875C99.001 64.7282 96.733 64.3478 95.7836 64.0753C95.3822 64.2435 93.6242 64.6757 91.8035 64.9101C94.3567 65.8161 98.0679 66.7603 100.401 66.7603C100.632 66.7603 100.847 66.7517 101.042 66.7337C104.782 66.3983 106.678 62.9603 106.776 60.9674C105.671 61.1892 103.743 61.3294 101.759 61.3294C100.077 61.3294 96.9028 61.1874 94.4374 60.5082ZM109.909 50.773C106.583 52.534 100.664 54.3706 96.0269 54.3299C97.2009 55.05 98.3137 55.877 99.034 56.5709C100.988 56.4544 103.631 55.8566 105.185 55.2316C105.217 55.5077 105.243 56.7373 103.445 57.2875C102.223 57.6618 100.32 57.7017 98.9176 57.7297C97.7956 58.4431 96.0693 59.1632 94.67 59.6396C95.9655 59.8237 97.5579 59.9588 99.0678 59.9588C101.542 59.9588 103.758 59.7014 105.147 59.2523C106.467 58.8252 110.669 56.9614 109.909 50.773ZM102.473 32.1365C103.059 32.5687 103.364 33.8243 102.537 35.257C101.104 37.7356 98.6293 39.9041 96.4605 41.6083C96.3684 43.2004 95.6705 45.0473 94.955 46.4204C98.148 44.3034 101.811 41.0546 103.474 38.8758C105.637 36.043 106.532 33.2072 106.134 30.4467C105.738 27.7041 104.128 25.7579 103.194 24.9842C102.363 27.1519 98.9229 32.6849 95.8539 36.0254C96.218 37.2337 96.4532 38.8402 96.474 40.237C99.1132 38.0514 102.025 33.693 102.473 32.1365ZM99.8386 48.4845C101.928 47.5947 104.871 45.5949 106.229 44.2074C106.409 44.4403 106.897 45.606 105.354 46.901C104.231 47.8445 101.952 48.8914 100.189 49.5772C99.4093 50.7432 97.9471 52.0415 95.8372 53.4408C99.9165 52.8007 104.836 51.1796 107.224 48.8301C111.758 44.3696 109.339 38.9301 108.744 37.7738C105.808 41.4343 100.189 45.3173 94.955 47.3858C96.7214 47.6032 98.5342 47.9758 99.8386 48.4845ZM87.6422 42.2224C85.9421 46.1693 81.6324 49.6881 78.8445 51.4499C77.5726 52.2534 78.0367 53.7772 78.4434 54.4534C82.2416 60.7681 75.335 65.4743 69.0968 62.3448C70.458 62.3597 71.8322 61.2021 72.0225 60.1705C71.5899 60.5446 69.8184 60.339 69.295 59.8548C70.0985 59.434 70.2896 59.0076 70.3312 58.6087C69.3373 59.2193 67.3286 59.3034 66.7367 58.272C63.4406 58.1831 61.2482 55.6085 61.0057 54.8656C60.7614 55.656 60.3668 57.0371 60.2372 58.4001C59.3433 57.7942 57.8167 56.4234 57.0208 54.5643C56.1201 55.8518 55.4408 57.3021 54.9999 58.8303C54.5587 57.3021 53.88 55.8518 52.9787 54.5643C52.1828 56.4234 50.6562 57.7942 49.7626 58.4001C49.6327 57.0371 49.2387 55.656 48.9941 54.8656C48.7515 55.6085 46.5589 58.1831 43.263 58.272C42.6709 59.3034 40.6624 59.2193 39.6686 58.6087C39.7099 59.0076 39.9012 59.434 40.7045 59.8548C40.1811 60.339 38.4099 60.5446 37.977 60.1705C38.1673 61.2021 39.5417 62.3597 40.9027 62.3448C34.6645 65.4743 27.7579 60.7681 31.5561 54.4534C31.9631 53.7772 32.4269 52.2534 31.1553 51.4499C28.3674 49.6881 24.0574 46.1693 22.3573 42.2224C22.1553 43.8318 22.3093 47.8258 24.0361 50.311C22.7744 50.7939 21.1564 51.5775 20.0687 52.3042C20.7568 53.0869 22.3585 54.4388 23.4346 55.1738C22.5562 55.9558 21.1924 57.4532 20.4767 58.4335C21.3835 58.9735 23.2108 59.629 24.607 60.0712C23.9615 61.1374 22.969 63.0606 22.7196 64.2051C24.283 64.4329 25.8791 64.412 27.2875 64.3675C27.1079 65.7022 27.2261 67.3781 27.3672 68.5991C28.8182 68.3902 30.4144 67.8007 31.4734 67.2425C31.6744 68.1637 32.228 69.8636 32.7243 70.7734C34.1009 69.4655 35.9166 68.8669 37.5975 69.2134C41.0389 69.9232 42.0619 73.4084 42.0619 73.4084L42.0673 62.8065V61.6229C42.0673 60.9621 42.4225 60.6123 43.0598 60.6125H66.9399C67.5773 60.6123 67.9323 60.9621 67.9323 61.6229V62.8065L67.9376 73.4084C67.9376 73.4084 68.9606 69.9232 72.402 69.2134C74.0829 68.8669 75.8988 69.4655 77.2755 70.7734C77.772 69.8636 78.3254 68.1637 78.5263 67.2425C79.5851 67.8007 81.1815 68.3902 82.6325 68.5991C82.7736 67.3781 82.8916 65.7022 82.7122 64.3675C84.1046 64.512 85.7061 64.512 87.2799 64.2051C87.031 63.0606 86.0382 61.1374 85.3925 60.0712C86.8448 59.6812 88.616 58.9735 89.5231 58.4335C88.8076 57.4532 87.4436 55.9558 86.5652 55.1738C87.641 54.4388 89.2427 53.0869 89.9311 52.3042C88.8431 51.5775 87.2251 50.7939 85.9636 50.311C87.6902 47.8258 87.8445 43.8318 87.6422 42.2224ZM44.2409 29.8114L44.099 30.1835C48.2715 30.1835 52.2825 28.7541 53.3527 23.7764H50.1566C49.5895 27.3626 47.4842 29.8114 44.2409 29.8114ZM26.2019 21.7132C26.2019 21.7132 28.4843 22.2426 29.3774 25.4581C30.2708 28.6738 32.5155 30.2118 34.8185 30.2118L34.6766 29.7736C33.3367 29.6066 31.4473 27.6958 31.0939 24.157C30.7376 20.5943 29.8648 20.1353 29.8648 20.1353C28.9631 19.5109 26.6964 21.1601 26.2019 21.7132ZM19.526 23.1515C21.4297 23.0891 22.7107 23.6953 25.1033 21.5132C27.9277 18.936 29.2686 19.3765 29.2686 19.3765C27.8272 18.4377 25.8172 18.0204 25.1269 18.5627C24.4367 19.1052 23.5023 20.5609 21.932 21.5973C19.7191 23.0577 17.446 22.6723 17.3443 24.0335H17.4059C17.4059 24.0335 17.6228 23.2144 19.526 23.1515ZM21.282 31.694C22.4392 32.8362 22.5455 35.1832 22.5455 35.1832C22.5455 35.1832 23.9313 32.6955 22.7893 30.0506C21.6476 27.4063 19.3141 25.3773 21.6017 23.8329C20.2044 23.8448 18.6902 23.523 18.0252 24.4715C17.8182 24.7668 17.6264 25.499 18.3229 26.5407C19.2081 27.8645 21.4187 30.9428 19.6072 32.9925C20.9316 32.7478 21.282 31.694 21.282 31.694ZM35.5746 30.1977H43.415C43.415 30.1977 43.6091 29.7213 43.8562 29.033H35.1338C35.3812 29.7213 35.5746 30.1977 35.5746 30.1977ZM40.2663 19.0512C40.2663 18.6226 39.9279 18.2745 39.5108 18.2745C39.0934 18.2745 38.7549 18.6226 38.7549 19.0512C38.7549 19.4803 39.0934 19.8277 39.5108 19.8277C39.9279 19.8277 40.2663 19.4803 40.2663 19.0512ZM44.1823 28.1542C44.5172 27.1014 44.895 25.5003 44.895 24.7276C44.895 23.3156 44.1361 21.7524 41.3962 21.2712C41.3962 22.9777 40.568 27.1588 39.5668 27.1588H39.4542C38.4535 27.1588 37.6251 23.0087 37.6251 21.2709C34.8763 21.7514 34.0946 23.3151 34.0946 24.7276C34.0946 25.5003 34.4726 27.1014 34.8081 28.1542H44.1823ZM39.5108 25.9878C40.0324 25.9878 40.4551 23.2578 40.4551 21.8986C40.4551 21.156 40.0324 20.669 39.5108 20.669C38.9889 20.669 38.5659 21.156 38.5659 21.8986C38.5659 23.2578 38.9889 25.9878 39.5108 25.9878ZM39.0066 17.2391H40.0144L39.8886 15.9446L41.148 16.0742V15.0386L39.8886 15.1682L40.0144 13.8736H39.0066L39.1327 15.1682L37.8733 15.0386V16.0742L39.1327 15.9446L39.0066 17.2391ZM59.8431 23.7764H56.647C57.7175 28.7541 61.7283 30.1835 65.9007 30.1835L65.7591 29.8114C62.5158 29.8114 60.4102 27.3626 59.8431 23.7764ZM75.1815 30.2118C77.4843 30.2118 79.729 28.6738 80.6226 25.4581C81.5154 22.2426 83.7981 21.7132 83.7981 21.7132C83.3034 21.1601 81.0369 19.5109 80.1349 20.1353C80.1349 20.1353 79.2624 20.5943 78.9059 24.157C78.5527 27.6958 76.6633 29.6066 75.3234 29.7736L75.1815 30.2118ZM84.8967 21.5132C87.2891 23.6953 88.5701 23.0891 90.474 23.1515C92.3769 23.2144 92.5938 24.0335 92.5938 24.0335H92.6555C92.5538 22.6723 90.2807 23.0577 88.0682 21.5973C86.4977 20.5609 85.563 19.1052 84.8729 18.5627C84.1825 18.0204 82.1725 18.4377 80.7312 19.3765C80.7312 19.3765 82.0721 18.936 84.8967 21.5132ZM91.9745 24.4715C91.3095 23.523 89.7956 23.8448 88.3981 23.8329C90.6856 25.3773 88.3527 27.4063 87.2104 30.0506C86.0687 32.6955 87.4542 35.1832 87.4542 35.1832C87.4542 35.1832 87.5608 32.8362 88.7178 31.694C88.7178 31.694 89.0681 32.7478 90.3928 32.9925C88.581 30.9428 90.7917 27.8645 91.6772 26.5407C92.3734 25.499 92.1816 24.7668 91.9745 24.4715ZM74.4252 30.1977C74.4252 30.1977 74.6185 29.7213 74.8662 29.033H66.1438C66.3909 29.7213 66.5847 30.1977 66.5847 30.1977H74.4252ZM71.2448 19.0512C71.2448 18.6226 70.9063 18.2745 70.489 18.2745C70.0719 18.2745 69.7334 18.6226 69.7334 19.0512C69.7334 19.4803 70.0719 19.8277 70.489 19.8277C70.9063 19.8277 71.2448 19.4803 71.2448 19.0512ZM75.1919 28.1542C75.5274 27.1014 75.9054 25.5003 75.9054 24.7276C75.9054 23.3151 75.1234 21.7514 72.3746 21.2709C72.3746 23.0087 71.5465 27.1588 70.5456 27.1588H70.4332C69.432 27.1588 68.6036 22.9777 68.6036 21.2712C65.8637 21.7524 65.105 23.3156 65.105 24.7276C65.105 25.5003 65.4826 27.1014 65.8175 28.1542H75.1919ZM70.489 25.9878C71.0109 25.9878 71.4341 23.2578 71.4341 21.8986C71.4341 21.156 71.0109 20.669 70.489 20.669C69.9673 20.669 69.5446 21.156 69.5446 21.8986C69.5446 23.2578 69.9673 25.9878 70.489 25.9878ZM69.9856 17.2391H70.9931L70.8673 15.9446L72.1267 16.0742V15.0386L70.8673 15.1682L70.9931 13.8736H69.9856L70.1115 15.1682L68.8517 15.0386V16.0742L70.1115 15.9446L69.9856 17.2391ZM18.6887 48.3537C16.6521 48.4029 13.066 48.8099 11.2446 49.3898C12.4827 50.8808 15.7154 53.0215 17.6525 53.9308C16.1462 54.5032 13.4441 55.9561 12.3173 57.0046C13.7691 57.9048 16.9578 58.9331 18.4649 59.2693C17.5876 59.9833 15.7808 62.0477 15.1179 63.1609C16.3659 63.5514 18.932 63.8911 20.5614 63.9869C20.039 65.079 19.444 67.0065 19.2865 68.2624C20.0941 68.3445 22.7924 68.2046 24.1285 67.904C24.0138 68.9985 24.0574 70.9896 24.2381 71.8482C25.5562 71.6582 27.4383 71.1263 28.3141 70.7868C28.5676 71.7625 29.4739 73.8635 29.7925 74.3629C30.8485 74.1593 32.1092 73.7269 33.0358 73.2397C33.3286 74.0217 33.9941 75.1917 34.1781 75.4872C37.2648 72.3579 41.6727 74.8956 41.6727 78.2257C41.3561 80.4197 38.267 80.297 36.6409 81.3283C34.5028 82.6842 34.8728 85.8281 32.672 86.3108C34.7515 87.6296 35.3566 85.1545 37.5165 85.084C37.2283 86.4189 37.2557 88.7892 37.4721 89.7819C38.3609 89.0938 39.6077 88.5685 40.4234 88.5152C40.2219 89.2939 40.0646 91.1161 40.3562 92.2512C40.9293 91.8157 43.0692 89.9496 48.1502 91.1494C48.7662 91.2946 44.7037 91.1345 45.2106 92.4487C45.61 93.4848 45.7229 94.205 45.2454 95.6755C45.4608 95.7531 45.7107 95.79 45.9799 95.79C47.1193 95.79 48.5965 95.1269 49.1833 94.086C49.6367 94.424 49.6367 96.8319 48.1175 97.43C49.7403 97.5487 50.9761 96.2267 51.2159 95.4144C51.2159 95.4144 52.0093 97.3057 52.9501 97.9266C53.5407 97.719 54.5932 96.7369 55.0001 95.717C55.4063 96.7369 56.459 97.719 57.0494 97.9266C57.9902 97.3057 58.7836 95.4144 58.7836 95.4144C59.0234 96.2267 60.2595 97.5487 61.8823 97.43C60.363 96.8319 60.363 94.424 60.8162 94.086C61.4033 95.1269 62.8804 95.79 64.0199 95.79C64.2891 95.79 64.5392 95.7531 64.7547 95.6755C64.2772 94.205 64.3901 93.4848 64.7894 92.4487C65.2963 91.1345 61.2338 91.2946 61.8498 91.1494C66.9298 89.9496 69.0707 91.8157 69.6438 92.2512C69.9354 91.1161 69.7781 89.2939 69.5766 88.5152C70.3921 88.5685 71.6388 89.0938 72.5279 89.7819C72.7438 88.7892 72.7717 86.4189 72.483 85.084C74.6429 85.1545 75.248 87.6296 77.3278 86.3108C75.127 85.8281 75.4967 82.6842 73.3586 81.3283C71.7325 80.297 68.6434 80.4197 68.3268 78.2257C68.3268 74.8956 72.7347 72.3579 75.8217 75.4872C76.0054 75.1917 76.6709 74.0217 76.9639 73.2397C77.8903 73.7269 79.1512 74.1593 80.2072 74.3629C80.5257 73.8635 81.4322 71.7625 81.6854 70.7868C82.5615 71.1263 84.4436 71.6582 85.7617 71.8482C85.9423 70.9896 85.986 68.9985 85.8713 67.904C87.2074 68.2046 89.9054 68.3445 90.713 68.2624C90.5557 67.0065 89.961 65.079 89.4381 63.9869C91.0677 63.8911 93.6336 63.5514 94.8819 63.1609C94.2187 62.0477 92.4119 59.9833 91.5351 59.2693C93.0417 58.9331 96.2304 57.9048 97.6825 57.0046C96.5557 55.9561 93.8533 54.5032 92.347 53.9308C94.2844 53.0215 97.5168 50.8808 98.7552 49.3898C96.9335 48.8099 93.3474 48.4029 91.311 48.3537C95.5263 45.4694 95.6562 39.213 94.4422 35.8132C93.626 37.8741 90.9198 41.2602 89.1729 43.0857C89.328 44.8233 88.7645 47.9053 87.798 49.7864C89.1816 50.312 90.8216 51.1049 91.9834 51.9889C91.2123 52.9594 89.5538 54.4653 88.5135 55.2812C89.3939 56.2023 90.8746 57.8939 91.5343 58.8719C90.5593 59.6024 88.4377 60.4403 87.35 60.825C87.8853 61.923 88.6627 63.926 88.8637 65.3086C87.625 65.5137 85.92 65.6522 84.1374 65.6307C84.2239 66.9545 84.0379 69.0045 83.8073 70.2321C82.154 70.1005 80.2034 69.4215 79.3337 68.9853C78.8734 70.8151 77.7365 72.5903 77.6868 72.6847C72.5188 67.0497 67.9381 72.3657 67.9381 77.3323V84.1002C67.9381 87.3015 66.9298 88.763 64.0283 88.763H60.2735C57.9359 88.763 55.9772 89.7551 54.9999 91.6609C54.0225 89.7551 52.0638 88.763 49.7263 88.763H45.9712C43.0697 88.763 42.0614 87.3015 42.0614 84.1002V77.3323C42.0614 72.3657 37.481 67.0497 32.313 72.6847C32.2633 72.5903 31.1261 70.8151 30.6658 68.9853C29.7961 69.4215 27.8455 70.1005 26.1927 70.2321C25.9616 69.0045 25.7759 66.9545 25.8624 65.6307C24.0798 65.6522 22.3748 65.5137 21.1358 65.3086C21.337 63.926 22.1144 61.923 22.6498 60.825C21.5624 60.4403 19.4405 59.6024 18.4654 58.8719C19.1249 57.8939 20.6058 56.2023 21.4862 55.2812C20.4457 54.4653 18.7872 52.9594 18.0164 51.9889C19.1779 51.1049 20.8182 50.312 22.2017 49.7864C21.2353 47.9053 20.6715 44.8233 20.8266 43.0857C19.0797 41.2602 16.3735 37.8741 15.5573 35.8132C14.3433 39.213 14.4734 45.4694 18.6887 48.3537ZM7.05641 80.668L6.67634 81.0737C6.67634 81.0737 7.46465 82.1042 8.10098 81.7122C8.46329 81.0431 7.43826 80.2641 7.43826 80.2641L7.05641 80.668Z"/>
</svg>
